<svg xmlns="http://www.w3.org/2000/svg" xmlns:xlink="http://www.w3.org/1999/xlink" contentStyleType="text/css" data-diagram-type="DESCRIPTION" height="646px" preserveAspectRatio="none" style="width:2072px;height:646px;background:#FFFFFF;" version="1.1" viewBox="0 0 2072 646" width="2072px" zoomAndPan="magnify"><defs/><g><!--cluster Frontend--><g class="cluster" data-entity="Frontend" data-source-line="3" data-uid="ent0002" id="cluster_Frontend"><path d="M781.5,6.0137 L843.1553,6.0137 A3.75,3.75 0 0 1 845.6553,8.5137 L852.6553,30.6348 L1112.5,30.6348 A2.5,2.5 0 0 1 1115,33.1348 L1115,123.5137 A2.5,2.5 0 0 1 1112.5,126.0137 L781.5,126.0137 A2.5,2.5 0 0 1 779,123.5137 L779,8.5137 A2.5,2.5 0 0 1 781.5,6.0137" fill="none" style="stroke:#000000;stroke-width:1.5;"/><line style="stroke:#000000;stroke-width:1.5;" x1="779" x2="852.6553" y1="30.6348" y2="30.6348"/><text fill="#000000" font-family="sans-serif" font-size="14" font-weight="bold" lengthAdjust="spacing" textLength="60.6553" x="783" y="23.1211">Frontend</text></g><!--cluster Backend--><g class="cluster" data-entity="Backend" data-source-line="8" data-uid="ent0005" id="cluster_Backend"><path d="M875.5,177.0137 L934.8584,177.0137 A3.75,3.75 0 0 1 937.3584,179.5137 L944.3584,201.6348 L1042.5,201.6348 A2.5,2.5 0 0 1 1045,204.1348 L1045,294.5137 A2.5,2.5 0 0 1 1042.5,297.0137 L875.5,297.0137 A2.5,2.5 0 0 1 873,294.5137 L873,179.5137 A2.5,2.5 0 0 1 875.5,177.0137" fill="none" style="stroke:#000000;stroke-width:1.5;"/><line style="stroke:#000000;stroke-width:1.5;" x1="873" x2="944.3584" y1="201.6348" y2="201.6348"/><text fill="#000000" font-family="sans-serif" font-size="14" font-weight="bold" lengthAdjust="spacing" textLength="58.3584" x="877" y="194.1211">Backend</text></g><!--cluster Database--><g class="cluster" data-entity="Database" data-source-line="12" data-uid="ent0007" id="cluster_Database"><path d="M8.5,348.0137 L71.7549,348.0137 A3.75,3.75 0 0 1 74.2549,350.5137 L81.2549,372.6348 L811.5,372.6348 A2.5,2.5 0 0 1 814,375.1348 L814,465.5137 A2.5,2.5 0 0 1 811.5,468.0137 L8.5,468.0137 A2.5,2.5 0 0 1 6,465.5137 L6,350.5137 A2.5,2.5 0 0 1 8.5,348.0137" fill="none" style="stroke:#000000;stroke-width:1.5;"/><line style="stroke:#000000;stroke-width:1.5;" x1="6" x2="81.2549" y1="372.6348" y2="372.6348"/><text fill="#000000" font-family="sans-serif" font-size="14" font-weight="bold" lengthAdjust="spacing" textLength="62.2549" x="10" y="365.1211">Database</text></g><!--cluster Modules--><g class="cluster" data-entity="Modules" data-source-line="20" data-uid="ent0013" id="cluster_Modules"><path d="M840.5,348.0137 L898.2793,348.0137 A3.75,3.75 0 0 1 900.7793,350.5137 L907.7793,372.6348 L1978.5,372.6348 A2.5,2.5 0 0 1 1981,375.1348 L1981,465.5137 A2.5,2.5 0 0 1 1978.5,468.0137 L840.5,468.0137 A2.5,2.5 0 0 1 838,465.5137 L838,350.5137 A2.5,2.5 0 0 1 840.5,348.0137" fill="none" style="stroke:#000000;stroke-width:1.5;"/><line style="stroke:#000000;stroke-width:1.5;" x1="838" x2="907.7793" y1="372.6348" y2="372.6348"/><text fill="#000000" font-family="sans-serif" font-size="14" font-weight="bold" lengthAdjust="spacing" textLength="56.7793" x="842" y="365.1211">Modules</text></g><!--cluster External Systems--><g class="cluster" data-entity="External Systems" data-source-line="28" data-uid="ent0019" id="cluster_External Systems"><path d="M1714.5,519.0137 L1832.2305,519.0137 A3.75,3.75 0 0 1 1834.7305,521.5137 L1841.7305,543.6348 L2050.5,543.6348 A2.5,2.5 0 0 1 2053,546.1348 L2053,636.5137 A2.5,2.5 0 0 1 2050.5,639.0137 L1714.5,639.0137 A2.5,2.5 0 0 1 1712,636.5137 L1712,521.5137 A2.5,2.5 0 0 1 1714.5,519.0137" fill="none" style="stroke:#000000;stroke-width:1.5;"/><line style="stroke:#000000;stroke-width:1.5;" x1="1712" x2="1841.7305" y1="543.6348" y2="543.6348"/><text fill="#000000" font-family="sans-serif" font-size="14" font-weight="bold" lengthAdjust="spacing" textLength="116.7305" x="1716" y="536.1211">External Systems</text></g><!--entity Web Application--><g class="entity" data-entity="Web Application" data-source-line="4" data-uid="ent0003" id="entity_Web Application"><rect fill="#F1F1F1" height="67.2422" rx="2.5" ry="2.5" style="stroke:#181818;stroke-width:0.5;" width="141.165" x="795.5" y="43.0137"/><rect fill="#F1F1F1" height="10" style="stroke:#181818;stroke-width:0.5;" width="15" x="916.665" y="48.0137"/><rect fill="#F1F1F1" height="2" style="stroke:#181818;stroke-width:0.5;" width="4" x="914.665" y="50.0137"/><rect fill="#F1F1F1" height="2" style="stroke:#181818;stroke-width:0.5;" width="4" x="914.665" y="54.0137"/><text fill="#000000" font-family="sans-serif" font-size="14" font-style="italic" lengthAdjust="spacing" textLength="84.8408" x="818.6621" y="78.1211">&#171;component&#187;</text><text fill="#000000" font-family="sans-serif" font-size="14" lengthAdjust="spacing" textLength="101.165" x="810.5" y="96.7422">Web Application</text></g><!--entity Mobile App--><g class="entity" data-entity="Mobile App" data-source-line="5" data-uid="ent0004" id="entity_Mobile App"><rect fill="#F1F1F1" height="67.2422" rx="2.5" ry="2.5" style="stroke:#181818;stroke-width:0.5;" width="126.8408" x="971.5" y="43.0137"/><rect fill="#F1F1F1" height="10" style="stroke:#181818;stroke-width:0.5;" width="15" x="1078.3408" y="48.0137"/><rect fill="#F1F1F1" height="2" style="stroke:#181818;stroke-width:0.5;" width="4" x="1076.3408" y="50.0137"/><rect fill="#F1F1F1" height="2" style="stroke:#181818;stroke-width:0.5;" width="4" x="1076.3408" y="54.0137"/><text fill="#000000" font-family="sans-serif" font-size="14" font-style="italic" lengthAdjust="spacing" textLength="84.8408" x="987.5" y="78.1211">&#171;component&#187;</text><text fill="#000000" font-family="sans-serif" font-size="14" lengthAdjust="spacing" textLength="70.041" x="994.8999" y="96.7422">Mobile App</text></g><!--entity Backend Server--><g class="entity" data-entity="Backend Server" data-source-line="9" data-uid="ent0006" id="entity_Backend Server"><rect fill="#F1F1F1" height="67.2422" rx="2.5" ry="2.5" style="stroke:#181818;stroke-width:0.5;" width="139.6064" x="889" y="214.0137"/><rect fill="#F1F1F1" height="10" style="stroke:#181818;stroke-width:0.5;" width="15" x="1008.6064" y="219.0137"/><rect fill="#F1F1F1" height="2" style="stroke:#181818;stroke-width:0.5;" width="4" x="1006.6064" y="221.0137"/><rect fill="#F1F1F1" height="2" style="stroke:#181818;stroke-width:0.5;" width="4" x="1006.6064" y="225.0137"/><text fill="#000000" font-family="sans-serif" font-size="14" font-style="italic" lengthAdjust="spacing" textLength="84.8408" x="911.3828" y="249.1211">&#171;component&#187;</text><text fill="#000000" font-family="sans-serif" font-size="14" lengthAdjust="spacing" textLength="99.6064" x="904" y="267.7422">Backend Server</text></g><!--entity Orders DB--><g class="entity" data-entity="Orders DB" data-source-line="13" data-uid="ent0008" id="entity_Orders DB"><rect fill="#F1F1F1" height="67.2422" rx="2.5" ry="2.5" style="stroke:#181818;stroke-width:0.5;" width="126.8408" x="22.5" y="385.0137"/><rect fill="#F1F1F1" height="10" style="stroke:#181818;stroke-width:0.5;" width="15" x="129.3408" y="390.0137"/><rect fill="#F1F1F1" height="2" style="stroke:#181818;stroke-width:0.5;" width="4" x="127.3408" y="392.0137"/><rect fill="#F1F1F1" height="2" style="stroke:#181818;stroke-width:0.5;" width="4" x="127.3408" y="396.0137"/><text fill="#000000" font-family="sans-serif" font-size="14" font-style="italic" lengthAdjust="spacing" textLength="84.8408" x="38.5" y="420.1211">&#171;component&#187;</text><text fill="#000000" font-family="sans-serif" font-size="14" lengthAdjust="spacing" textLength="66.124" x="47.8584" y="438.7422">Orders DB</text></g><!--entity Inventory DB--><g class="entity" data-entity="Inventory DB" data-source-line="14" data-uid="ent0009" id="entity_Inventory DB"><rect fill="#F1F1F1" height="67.2422" rx="2.5" ry="2.5" style="stroke:#181818;stroke-width:0.5;" width="126.8408" x="184.5" y="385.0137"/><rect fill="#F1F1F1" height="10" style="stroke:#181818;stroke-width:0.5;" width="15" x="291.3408" y="390.0137"/><rect fill="#F1F1F1" height="2" style="stroke:#181818;stroke-width:0.5;" width="4" x="289.3408" y="392.0137"/><rect fill="#F1F1F1" height="2" style="stroke:#181818;stroke-width:0.5;" width="4" x="289.3408" y="396.0137"/><text fill="#000000" font-family="sans-serif" font-size="14" font-style="italic" lengthAdjust="spacing" textLength="84.8408" x="200.5" y="420.1211">&#171;component&#187;</text><text fill="#000000" font-family="sans-serif" font-size="14" lengthAdjust="spacing" textLength="80.9238" x="202.4585" y="438.7422">Inventory DB</text></g><!--entity Clients DB--><g class="entity" data-entity="Clients DB" data-source-line="15" data-uid="ent0010" id="entity_Clients DB"><rect fill="#F1F1F1" height="67.2422" rx="2.5" ry="2.5" style="stroke:#181818;stroke-width:0.5;" width="126.8408" x="346.5" y="385.0137"/><rect fill="#F1F1F1" height="10" style="stroke:#181818;stroke-width:0.5;" width="15" x="453.3408" y="390.0137"/><rect fill="#F1F1F1" height="2" style="stroke:#181818;stroke-width:0.5;" width="4" x="451.3408" y="392.0137"/><rect fill="#F1F1F1" height="2" style="stroke:#181818;stroke-width:0.5;" width="4" x="451.3408" y="396.0137"/><text fill="#000000" font-family="sans-serif" font-size="14" font-style="italic" lengthAdjust="spacing" textLength="84.8408" x="362.5" y="420.1211">&#171;component&#187;</text><text fill="#000000" font-family="sans-serif" font-size="14" lengthAdjust="spacing" textLength="66.1309" x="371.855" y="438.7422">Clients DB</text></g><!--entity Routes DB--><g class="entity" data-entity="Routes DB" data-source-line="16" data-uid="ent0011" id="entity_Routes DB"><rect fill="#F1F1F1" height="67.2422" rx="2.5" ry="2.5" style="stroke:#181818;stroke-width:0.5;" width="126.8408" x="508.5" y="385.0137"/><rect fill="#F1F1F1" height="10" style="stroke:#181818;stroke-width:0.5;" width="15" x="615.3408" y="390.0137"/><rect fill="#F1F1F1" height="2" style="stroke:#181818;stroke-width:0.5;" width="4" x="613.3408" y="392.0137"/><rect fill="#F1F1F1" height="2" style="stroke:#181818;stroke-width:0.5;" width="4" x="613.3408" y="396.0137"/><text fill="#000000" font-family="sans-serif" font-size="14" font-style="italic" lengthAdjust="spacing" textLength="84.8408" x="524.5" y="420.1211">&#171;component&#187;</text><text fill="#000000" font-family="sans-serif" font-size="14" lengthAdjust="spacing" textLength="67.6963" x="533.0723" y="438.7422">Routes DB</text></g><!--entity Couriers DB--><g class="entity" data-entity="Couriers DB" data-source-line="17" data-uid="ent0012" id="entity_Couriers DB"><rect fill="#F1F1F1" height="67.2422" rx="2.5" ry="2.5" style="stroke:#181818;stroke-width:0.5;" width="126.8408" x="670.5" y="385.0137"/><rect fill="#F1F1F1" height="10" style="stroke:#181818;stroke-width:0.5;" width="15" x="777.3408" y="390.0137"/><rect fill="#F1F1F1" height="2" style="stroke:#181818;stroke-width:0.5;" width="4" x="775.3408" y="392.0137"/><rect fill="#F1F1F1" height="2" style="stroke:#181818;stroke-width:0.5;" width="4" x="775.3408" y="396.0137"/><text fill="#000000" font-family="sans-serif" font-size="14" font-style="italic" lengthAdjust="spacing" textLength="84.8408" x="686.5" y="420.1211">&#171;component&#187;</text><text fill="#000000" font-family="sans-serif" font-size="14" lengthAdjust="spacing" textLength="76.2412" x="690.7998" y="438.7422">Couriers DB</text></g><!--entity Route Optimization Module--><g class="entity" data-entity="Route Optimization Module" data-source-line="21" data-uid="ent0014" id="entity_Route Optimization Module"><rect fill="#F1F1F1" height="67.2422" rx="2.5" ry="2.5" style="stroke:#181818;stroke-width:0.5;" width="208.8613" x="854.5" y="385.0137"/><rect fill="#F1F1F1" height="10" style="stroke:#181818;stroke-width:0.5;" width="15" x="1043.3613" y="390.0137"/><rect fill="#F1F1F1" height="2" style="stroke:#181818;stroke-width:0.5;" width="4" x="1041.3613" y="392.0137"/><rect fill="#F1F1F1" height="2" style="stroke:#181818;stroke-width:0.5;" width="4" x="1041.3613" y="396.0137"/><text fill="#000000" font-family="sans-serif" font-size="14" font-style="italic" lengthAdjust="spacing" textLength="84.8408" x="911.5103" y="420.1211">&#171;component&#187;</text><text fill="#000000" font-family="sans-serif" font-size="14" lengthAdjust="spacing" textLength="168.8613" x="869.5" y="438.7422">Route Optimization Module</text></g><!--entity Warehouse Management Module--><g class="entity" data-entity="Warehouse Management Module" data-source-line="22" data-uid="ent0015" id="entity_Warehouse Management Module"><rect fill="#F1F1F1" height="67.2422" rx="2.5" ry="2.5" style="stroke:#181818;stroke-width:0.5;" width="247.0059" x="1098.5" y="385.0137"/><rect fill="#F1F1F1" height="10" style="stroke:#181818;stroke-width:0.5;" width="15" x="1325.5059" y="390.0137"/><rect fill="#F1F1F1" height="2" style="stroke:#181818;stroke-width:0.5;" width="4" x="1323.5059" y="392.0137"/><rect fill="#F1F1F1" height="2" style="stroke:#181818;stroke-width:0.5;" width="4" x="1323.5059" y="396.0137"/><text fill="#000000" font-family="sans-serif" font-size="14" font-style="italic" lengthAdjust="spacing" textLength="84.8408" x="1174.5825" y="420.1211">&#171;component&#187;</text><text fill="#000000" font-family="sans-serif" font-size="14" lengthAdjust="spacing" textLength="207.0059" x="1113.5" y="438.7422">Warehouse Management Module</text></g><!--entity Courier Integration Module--><g class="entity" data-entity="Courier Integration Module" data-source-line="23" data-uid="ent0016" id="entity_Courier Integration Module"><rect fill="#F1F1F1" height="67.2422" rx="2.5" ry="2.5" style="stroke:#181818;stroke-width:0.5;" width="205.7578" x="1381" y="385.0137"/><rect fill="#F1F1F1" height="10" style="stroke:#181818;stroke-width:0.5;" width="15" x="1566.7578" y="390.0137"/><rect fill="#F1F1F1" height="2" style="stroke:#181818;stroke-width:0.5;" width="4" x="1564.7578" y="392.0137"/><rect fill="#F1F1F1" height="2" style="stroke:#181818;stroke-width:0.5;" width="4" x="1564.7578" y="396.0137"/><text fill="#000000" font-family="sans-serif" font-size="14" font-style="italic" lengthAdjust="spacing" textLength="84.8408" x="1436.4585" y="420.1211">&#171;component&#187;</text><text fill="#000000" font-family="sans-serif" font-size="14" lengthAdjust="spacing" textLength="165.7578" x="1396" y="438.7422">Courier Integration Module</text></g><!--entity Notification Service--><g class="entity" data-entity="Notification Service" data-source-line="24" data-uid="ent0017" id="entity_Notification Service"><rect fill="#F1F1F1" height="67.2422" rx="2.5" ry="2.5" style="stroke:#181818;stroke-width:0.5;" width="159.8271" x="1622" y="385.0137"/><rect fill="#F1F1F1" height="10" style="stroke:#181818;stroke-width:0.5;" width="15" x="1761.8271" y="390.0137"/><rect fill="#F1F1F1" height="2" style="stroke:#181818;stroke-width:0.5;" width="4" x="1759.8271" y="392.0137"/><rect fill="#F1F1F1" height="2" style="stroke:#181818;stroke-width:0.5;" width="4" x="1759.8271" y="396.0137"/><text fill="#000000" font-family="sans-serif" font-size="14" font-style="italic" lengthAdjust="spacing" textLength="84.8408" x="1654.4932" y="420.1211">&#171;component&#187;</text><text fill="#000000" font-family="sans-serif" font-size="14" lengthAdjust="spacing" textLength="119.8271" x="1637" y="438.7422">Notification Service</text></g><!--entity Analytics Service--><g class="entity" data-entity="Analytics Service" data-source-line="25" data-uid="ent0018" id="entity_Analytics Service"><rect fill="#F1F1F1" height="67.2422" rx="2.5" ry="2.5" style="stroke:#181818;stroke-width:0.5;" width="146.5928" x="1817.5" y="385.0137"/><rect fill="#F1F1F1" height="10" style="stroke:#181818;stroke-width:0.5;" width="15" x="1944.0928" y="390.0137"/><rect fill="#F1F1F1" height="2" style="stroke:#181818;stroke-width:0.5;" width="4" x="1942.0928" y="392.0137"/><rect fill="#F1F1F1" height="2" style="stroke:#181818;stroke-width:0.5;" width="4" x="1942.0928" y="396.0137"/><text fill="#000000" font-family="sans-serif" font-size="14" font-style="italic" lengthAdjust="spacing" textLength="84.8408" x="1843.376" y="420.1211">&#171;component&#187;</text><text fill="#000000" font-family="sans-serif" font-size="14" lengthAdjust="spacing" textLength="106.5928" x="1832.5" y="438.7422">Analytics Service</text></g><!--entity Courier API--><g class="entity" data-entity="Courier API" data-source-line="29" data-uid="ent0020" id="entity_Courier API"><rect fill="#F1F1F1" height="67.2422" rx="2.5" ry="2.5" style="stroke:#181818;stroke-width:0.5;" width="126.8408" x="1728.5" y="556.0137"/><rect fill="#F1F1F1" height="10" style="stroke:#181818;stroke-width:0.5;" width="15" x="1835.3408" y="561.0137"/><rect fill="#F1F1F1" height="2" style="stroke:#181818;stroke-width:0.5;" width="4" x="1833.3408" y="563.0137"/><rect fill="#F1F1F1" height="2" style="stroke:#181818;stroke-width:0.5;" width="4" x="1833.3408" y="567.0137"/><text fill="#000000" font-family="sans-serif" font-size="14" font-style="italic" lengthAdjust="spacing" textLength="84.8408" x="1744.5" y="591.1211">&#171;component&#187;</text><text fill="#000000" font-family="sans-serif" font-size="14" lengthAdjust="spacing" textLength="72.3584" x="1750.7412" y="609.7422">Courier API</text></g><!--entity Payment System--><g class="entity" data-entity="Payment System" data-source-line="30" data-uid="ent0021" id="entity_Payment System"><rect fill="#F1F1F1" height="67.2422" rx="2.5" ry="2.5" style="stroke:#181818;stroke-width:0.5;" width="145.8135" x="1891" y="556.0137"/><rect fill="#F1F1F1" height="10" style="stroke:#181818;stroke-width:0.5;" width="15" x="2016.8135" y="561.0137"/><rect fill="#F1F1F1" height="2" style="stroke:#181818;stroke-width:0.5;" width="4" x="2014.8135" y="563.0137"/><rect fill="#F1F1F1" height="2" style="stroke:#181818;stroke-width:0.5;" width="4" x="2014.8135" y="567.0137"/><text fill="#000000" font-family="sans-serif" font-size="14" font-style="italic" lengthAdjust="spacing" textLength="84.8408" x="1916.4863" y="591.1211">&#171;component&#187;</text><text fill="#000000" font-family="sans-serif" font-size="14" lengthAdjust="spacing" textLength="105.8135" x="1906" y="609.7422">Payment System</text></g><!--link Web Application to Backend Server--><g class="link" data-entity-1="Web Application" data-entity-2="Backend Server" data-source-line="34" data-uid="lnk22" id="link_Web Application_Backend Server"><path d="M883.93,110.0937 C900.35,139.9337 921.6271,178.5972 938.0771,208.4872" fill="none" id="Web Application-to-Backend Server" style="stroke:#181818;stroke-width:1;"/><polygon fill="#181818" points="940.97,213.7437,940.1349,203.9303,938.5592,209.3632,933.1263,207.7875,940.97,213.7437" style="stroke:#181818;stroke-width:1;"/><text fill="#000000" font-family="sans-serif" font-size="13" lengthAdjust="spacing" textLength="59.2363" x="910" y="157.042">REST API</text></g><!--link Mobile App to Backend Server--><g class="link" data-entity-1="Mobile App" data-entity-2="Backend Server" data-source-line="35" data-uid="lnk23" id="link_Mobile App_Backend Server"><path d="M1020.35,110.0937 C1006.93,139.9337 989.6406,178.3814 976.2006,208.2714" fill="none" id="Mobile App-to-Backend Server" style="stroke:#181818;stroke-width:1;"/><polygon fill="#181818" points="973.74,213.7437,981.079,207.1757,975.7905,209.1835,973.7827,203.8949,973.74,213.7437" style="stroke:#181818;stroke-width:1;"/><text fill="#000000" font-family="sans-serif" font-size="13" lengthAdjust="spacing" textLength="136.5444" x="1004" y="157.042">REST API / WebSocket</text></g><!--link Backend Server to Orders DB--><g class="link" data-entity-1="Backend Server" data-entity-2="Orders DB" data-source-line="37" data-uid="lnk24" id="link_Backend Server_Orders DB"><path d="M888.84,251.1637 C763.4,256.7637 492.75,272.7737 268,313.0137 C222.26,321.2037 207.5,317.2337 167,340.0137 C146.64,351.4637 131.6536,364.8077 117.1436,380.4277" fill="none" id="Backend Server-to-Orders DB" style="stroke:#181818;stroke-width:1;"/><polygon fill="#181818" points="113.06,384.8237,122.116,380.9521,116.463,381.1604,116.2547,375.5074,113.06,384.8237" style="stroke:#181818;stroke-width:1;"/><text fill="#000000" font-family="sans-serif" font-size="13" lengthAdjust="spacing" textLength="67.1772" x="269" y="328.042">SQL / ORM</text></g><!--link Backend Server to Inventory DB--><g class="link" data-entity-1="Backend Server" data-entity-2="Inventory DB" data-source-line="38" data-uid="lnk25" id="link_Backend Server_Inventory DB"><path d="M888.78,254.3737 C788,263.4137 596.74,282.9437 436,313.0137 C387.79,322.0337 371.92,316.2737 329,340.0137 C308.56,351.3137 293.5678,364.6524 279.0678,380.3024" fill="none" id="Backend Server-to-Inventory DB" style="stroke:#181818;stroke-width:1;"/><polygon fill="#181818" points="274.99,384.7037,284.041,380.8203,278.3882,381.036,278.1726,375.3832,274.99,384.7037" style="stroke:#181818;stroke-width:1;"/><text fill="#000000" font-family="sans-serif" font-size="13" lengthAdjust="spacing" textLength="67.1772" x="437" y="328.042">SQL / ORM</text></g><!--link Backend Server to Clients DB--><g class="link" data-entity-1="Backend Server" data-entity-2="Clients DB" data-source-line="39" data-uid="lnk26" id="link_Backend Server_Clients DB"><path d="M888.84,248.6737 C792.95,251.7937 618.36,267.9737 491,340.0137 C470.67,351.5137 455.6865,364.8704 441.1665,380.4804" fill="none" id="Backend Server-to-Clients DB" style="stroke:#181818;stroke-width:1;"/><polygon fill="#181818" points="437.08,384.8737,446.1386,381.0081,440.4854,381.2126,440.2809,375.5595,437.08,384.8737" style="stroke:#181818;stroke-width:1;"/><text fill="#000000" font-family="sans-serif" font-size="13" lengthAdjust="spacing" textLength="67.1772" x="537" y="328.042">SQL / ORM</text></g><!--link Backend Server to Routes DB--><g class="link" data-entity-1="Backend Server" data-entity-2="Routes DB" data-source-line="40" data-uid="lnk27" id="link_Backend Server_Routes DB"><path d="M888.69,259.7637 C824.11,272.2837 727.41,296.7237 653,340.0137 C632.98,351.6637 618.1747,364.8474 603.6647,380.3174" fill="none" id="Backend Server-to-Routes DB" style="stroke:#181818;stroke-width:1;"/><polygon fill="#181818" points="599.56,384.6937,608.6345,380.8657,602.9806,381.0468,602.7995,375.3928,599.56,384.6937" style="stroke:#181818;stroke-width:1;"/><text fill="#000000" font-family="sans-serif" font-size="13" lengthAdjust="spacing" textLength="67.1772" x="700" y="328.042">SQL / ORM</text></g><!--link Backend Server to Couriers DB--><g class="link" data-entity-1="Backend Server" data-entity-2="Couriers DB" data-source-line="41" data-uid="lnk28" id="link_Backend Server_Couriers DB"><path d="M915.62,281.0937 C875.9,310.9337 822.2277,351.2506 782.4277,381.1406" fill="none" id="Backend Server-to-Couriers DB" style="stroke:#181818;stroke-width:1;"/><polygon fill="#181818" points="777.63,384.7437,787.2286,382.5375,781.6281,381.7411,782.4245,376.1406,777.63,384.7437" style="stroke:#181818;stroke-width:1;"/><text fill="#000000" font-family="sans-serif" font-size="13" lengthAdjust="spacing" textLength="67.1772" x="867" y="328.042">SQL / ORM</text></g><!--link Backend Server to Route Optimization Module--><g class="link" data-entity-1="Backend Server" data-entity-2="Route Optimization Module" data-source-line="43" data-uid="lnk29" id="link_Backend Server_Route Optimization Module"><path d="M959,281.0937 C959,310.9337 959,348.8537 959,378.7437" fill="none" id="Backend Server-to-Route Optimization Module" style="stroke:#181818;stroke-width:1;"/><polygon fill="#181818" points="959,384.7437,963,375.7437,959,379.7437,955,375.7437,959,384.7437" style="stroke:#181818;stroke-width:1;"/><text fill="#000000" font-family="sans-serif" font-size="13" lengthAdjust="spacing" textLength="107.6563" x="960" y="328.042">API / Function Call</text></g><!--link Backend Server to Warehouse Management Module--><g class="link" data-entity-1="Backend Server" data-entity-2="Warehouse Management Module" data-source-line="44" data-uid="lnk30" id="link_Backend Server_Warehouse Management Module"><path d="M1021.42,281.1537 C1039.29,290.9837 1058.64,302.0637 1076,313.0137 C1111.73,335.5437 1145.7291,359.9082 1174.3491,381.2382" fill="none" id="Backend Server-to-Warehouse Management Module" style="stroke:#181818;stroke-width:1;"/><polygon fill="#181818" points="1179.16,384.8237,1174.334,376.2382,1175.1509,381.8358,1169.5534,382.6527,1179.16,384.8237" style="stroke:#181818;stroke-width:1;"/><text fill="#000000" font-family="sans-serif" font-size="13" lengthAdjust="spacing" textLength="107.6563" x="1105" y="328.042">API / Function Call</text></g><!--link Backend Server to Courier Integration Module--><g class="link" data-entity-1="Backend Server" data-entity-2="Courier Integration Module" data-source-line="45" data-uid="lnk31" id="link_Backend Server_Courier Integration Module"><path d="M1029.15,256.8837 C1111.56,268.4037 1251.21,293.2537 1363,340.0137 C1390.62,351.5637 1414.0143,365.8733 1436.3043,381.4733" fill="none" id="Backend Server-to-Courier Integration Module" style="stroke:#181818;stroke-width:1;"/><polygon fill="#181818" points="1441.22,384.9137,1436.14,376.476,1437.1236,382.0467,1431.5529,383.0303,1441.22,384.9137" style="stroke:#181818;stroke-width:1;"/><text fill="#000000" font-family="sans-serif" font-size="13" lengthAdjust="spacing" textLength="107.6563" x="1343" y="328.042">API / Function Call</text></g><!--link Backend Server to Notification Service--><g class="link" data-entity-1="Backend Server" data-entity-2="Notification Service" data-source-line="46" data-uid="lnk32" id="link_Backend Server_Notification Service"><path d="M1029.12,253.4037 C1174.42,264.3537 1503.32,293.5637 1605,340.0137 C1628.72,350.8537 1647.2319,364.7381 1664.8619,380.6181" fill="none" id="Backend Server-to-Notification Service" style="stroke:#181818;stroke-width:1;"/><polygon fill="#181818" points="1669.32,384.6337,1665.3099,375.6382,1665.6049,381.2873,1659.9557,381.5824,1669.32,384.6337" style="stroke:#181818;stroke-width:1;"/><text fill="#000000" font-family="sans-serif" font-size="13" lengthAdjust="spacing" textLength="109.8208" x="1578" y="328.042">API / Event Trigger</text></g><!--link Backend Server to Analytics Service--><g class="link" data-entity-1="Backend Server" data-entity-2="Analytics Service" data-source-line="47" data-uid="lnk33" id="link_Backend Server_Analytics Service"><path d="M1029.1,250.7637 C1160.69,255.8337 1453.29,271.1837 1696,313.0137 C1743.06,321.1237 1757.64,317.9737 1800,340.0137 C1822.09,351.5037 1839.1152,365.1263 1855.5852,380.7363" fill="none" id="Backend Server-to-Analytics Service" style="stroke:#181818;stroke-width:1;"/><polygon fill="#181818" points="1859.94,384.8637,1856.1594,375.7693,1856.311,381.4242,1850.6562,381.5757,1859.94,384.8637" style="stroke:#181818;stroke-width:1;"/><text fill="#000000" font-family="sans-serif" font-size="13" lengthAdjust="spacing" textLength="122.8398" x="1782" y="328.042">API / Report Request</text></g><!--link Courier Integration Module to Courier API--><g class="link" data-entity-1="Courier Integration Module" data-entity-2="Courier API" data-source-line="49" data-uid="lnk34" id="link_Courier Integration Module_Courier API"><path d="M1543.39,452.0937 C1597.84,481.9737 1672.7999,523.1072 1727.2699,552.9972" fill="none" id="Courier Integration Module-to-Courier API" style="stroke:#181818;stroke-width:1;"/><polygon fill="#181818" points="1732.53,555.8837,1726.5642,548.0473,1728.1466,553.4783,1722.7156,555.0607,1732.53,555.8837" style="stroke:#181818;stroke-width:1;"/><text fill="#000000" font-family="sans-serif" font-size="13" lengthAdjust="spacing" textLength="124.9917" x="1629" y="499.042">REST API / Webhook</text></g><!--link Backend Server to Payment System--><g class="link" data-entity-1="Backend Server" data-entity-2="Payment System" data-source-line="50" data-uid="lnk35" id="link_Backend Server_Payment System"><path d="M1029.28,250.4437 C1220.07,256.1337 1744.62,274.8737 1913,313.0137 C1944.71,320.1937 1962.74,313.1137 1981,340.0137 C2025.57,405.6637 1999.6525,499.2692 1980.1825,550.1992" fill="none" id="Backend Server-to-Payment System" style="stroke:#181818;stroke-width:1;"/><polygon fill="#181818" points="1978.04,555.8037,1984.9901,548.8254,1979.8254,551.1333,1977.5175,545.9687,1978.04,555.8037" style="stroke:#181818;stroke-width:1;"/><text fill="#000000" font-family="sans-serif" font-size="13" lengthAdjust="spacing" textLength="59.2363" x="2005" y="424.042">REST API</text></g><!--SRC=[bLF1RjD04BtxAqQzz5HnZwf8QPfAaGWfSQKU48UDiwIhEhjclQu828d2aGCI7y0tLAK10sdx2-C_OkmuPPEi7MffRS_EUszdTz_i0dx3- -m3pl26nXyQjvZY3F0ttk4Sx-bzcqzc7-dl6h9BJBDB2cOuppu34UxmUpcL4YVrl8W5vspCOUT8Ascu7Et0Em_eUN7AXz2Aeb04p0WbNyB-Vg0caP9SccPpWUcfeGXv3bjFlxUa3-Z7LYvZyBc-uBgEUSWC6xAOFr3xUiHr38S7pdAwye8YfQTLW7OeAAha3rHYU6MshH8jtAlRDVVKA0bv_51o8Ghzo8Y9U5iS9ImWpaLEcUPdAeavz9WalGdbwl1bKT2bonlhhVBFb16loXijpby4Rc1Bid1gH11NeUmjTzuOhea0_ZGsVF9lxylgMiTTvoh7R5fiSC5pBB4B-1L_uXNPTKxcpLt_gx3lDTdu2z3a37_WJVR9rG9N5AVUff7tzfgR9cp0eEEVv9LwAxRU0eOdGFg-ehpnl0rWmRPCsm3_-LFYz0Uz2l2gXxVZRKjlHriE_mzfs_0sl4xSxVH6ULP7YGoAH9k5OOLCRGiyHgYkDnwZuswQfK8dloyuqM8yvhf2mT5DI_g0HqeR-hnEU9nRgAxgbMqLJRNkn3EbpYkAM6yso_5_0G00]--></g></svg>